<mxfile host="app.diagrams.net" modified="2024-03-14T07:07:29.083Z" agent="Mozilla/5.0 (Windows NT 10.0; Win64; x64) AppleWebKit/537.36 (KHTML, like Gecko) Chrome/122.0.0.0 Safari/537.36" version="24.0.5" etag="ZHMtjGRivIRFHLTSwB6r" type="github">
  <diagram name="第 1 页" id="HrifOeRFo8T3E7UxBii4">
    <mxGraphModel>
      <root>
        <mxCell id="0" />
        <mxCell id="1" parent="0" />
      </root>
    </mxGraphModel>
  </diagram>
</mxfile>
